<svg xmlns="http://www.w3.org/2000/svg" width="208.129" height="50" viewBox="0 0 208.129 50">
  <g id="Group_209" data-name="Group 209" transform="translate(-50.74 -43)">
    <g id="Group_208" data-name="Group 208" transform="translate(9801.74 19690.182)">
      <path id="Path_5116" data-name="Path 5116" d="M3.5,2.5h0L8.068,7.072l2.843,2.92,6.147,6.185a.318.318,0,0,0,.423,0l6.07-6.032,5.225-5.186h.346c.96,1.037,1.959,2.036,3,3.035v.346L26.546,13.91l-7.991,8.029-1.037,1.037h-.384l-2.689-2.651L4.994,11.067,0,6.265V5.958c1.114-1.076,2.19-2.19,3.265-3.3Z" transform="translate(-9751 -19629.135)" fill="#fff"/>
      <path id="Path_5117" data-name="Path 5117" d="M5.444,12.524a.231.231,0,0,1-.192,0L2.14,9.412V9.1L5.6,5.647,10.477.576c.231-.231.461-.576.692-.576s.423.346.615.576l2.536,2.612s.192.192,0,.346C12.474,5.34,10.707,7.376,8.9,8.99L5.444,12.332Z" transform="translate(-9744.918 -19636.24)" fill="#fff"/>
      <path id="Path_5118" data-name="Path 5118" d="M12.678,1.54h0l3.073,3.112v.269L14.407,6.265,6.954,13.949H6.531L3.65,10.991v-.307l9.028-9.028Z" transform="translate(-9740.628 -19631.863)" fill="#fff"/>
    </g>
    <text id="LEVANT" transform="translate(174.869 83)" fill="#fff" font-size="41" font-family="Montserrat-Bold, Montserrat" font-weight="700"><tspan x="-83.804" y="0">LEVANT</tspan></text>
  </g>
</svg>
